<svg width="70" height="70" viewBox="0 0 70 70" fill="none" xmlns="http://www.w3.org/2000/svg">
<path d="M70 35C70 15.67 54.33 0 35 0C15.67 0 0 15.67 0 35C0 54.33 15.67 70 35 70C54.33 70 70 54.33 70 35Z" fill="#8957FF"/>
<g clip-path="url(#clip0_63_3)">
<path d="M37.3188 6.97849C37.3933 6.97918 37.4683 6.97987 37.5429 6.98056C38.0379 6.98743 38.5123 7.0194 38.9935 7.13731C39.0533 7.15071 39.1131 7.16343 39.1733 7.17649C40.3283 7.43465 41.3527 8.0015 42.0161 9.00181C42.0917 9.12075 42.1574 9.2445 42.2203 9.36962C42.2547 9.44421 42.2547 9.44421 42.3289 9.47309C43.0027 9.58584 43.7005 9.48925 44.3605 9.34659C44.7214 9.272 45.0652 9.24553 45.3883 9.43871C45.7042 9.66868 45.8867 9.9509 45.952 10.3393C45.9699 10.6339 45.8603 10.9168 45.7678 11.1918C45.7606 11.2142 45.753 11.2365 45.7454 11.2596C45.2264 12.8064 44.1917 14.2639 42.7067 15.0064C42.6565 15.0264 42.6063 15.0456 42.5558 15.0642C42.5297 15.0738 42.5035 15.0838 42.4764 15.0937C42.4252 15.1127 42.3733 15.1302 42.3213 15.1467C42.2179 15.1842 42.1443 15.2151 42.0811 15.3072C42.0436 15.389 42.014 15.4715 41.9848 15.5564C41.9563 15.6303 41.9278 15.7039 41.8992 15.7775C41.8755 15.8407 41.8514 15.9036 41.8277 15.9665C41.2846 17.4 40.6796 18.8678 39.7755 20.1259C39.7577 20.1507 39.7398 20.1754 39.7216 20.2008C39.6882 20.2469 39.6542 20.2923 39.6195 20.337C39.5425 20.4422 39.5091 20.4978 39.5205 20.6298C39.5442 20.7519 39.571 20.8715 39.6016 20.9908L39.6356 21.1269C39.6415 21.1503 39.6473 21.174 39.6535 21.1984C39.9814 22.5081 40.2069 23.8315 40.2035 25.1859V25.2694C40.2028 25.871 40.1798 26.4726 40.0722 27.0638C40.0681 27.0917 40.0636 27.1195 40.0595 27.148C40.0523 27.1893 40.0523 27.1893 40.0447 27.2312C40.0684 27.3735 40.164 27.4485 40.2637 27.5478C40.3049 27.5908 40.3465 27.6337 40.3878 27.6767C40.408 27.698 40.4287 27.719 40.4496 27.741C40.5524 27.8503 40.6452 27.9675 40.7391 28.0847C40.8082 28.17 40.879 28.2535 40.9508 28.3367C41.2805 28.7217 41.5799 29.1273 41.8583 29.5467C41.8728 29.568 41.8872 29.5897 41.9023 29.612C41.9147 29.6306 41.9271 29.6495 41.9401 29.6691C41.9944 29.7402 42.0573 29.8007 42.1213 29.8637C42.1313 29.6966 42.1313 29.6966 42.1409 29.5295C42.1488 29.3965 42.1567 29.2635 42.1646 29.1308C42.2134 28.3195 42.2368 27.5117 42.243 26.697C42.245 26.4406 42.2478 26.1848 42.2502 25.927C42.2505 25.8995 42.2509 25.8724 42.2512 25.8438C42.2591 25.1151 42.2763 24.3863 42.3361 23.661C42.3382 23.6342 42.3406 23.6074 42.3427 23.5799C42.4709 22.0193 42.7414 20.4862 43.1333 18.9737C43.1529 18.8973 43.1725 18.8207 43.1917 18.744C43.322 18.2284 43.4595 17.7162 43.6248 17.2075C43.6365 17.17 43.6486 17.1325 43.6606 17.094C43.7768 16.7468 43.971 16.4443 44.3034 16.2759C44.6372 16.1387 44.9634 16.1329 45.2968 16.2718C45.6303 16.4481 45.8022 16.7221 45.9259 17.0693C45.9599 17.2821 45.9331 17.4715 45.8788 17.6777C45.8726 17.7014 45.8664 17.7252 45.8599 17.7496C45.7998 17.9775 45.7313 18.2033 45.6626 18.4302C45.1435 20.1421 44.7963 21.9021 44.6417 23.6896C44.6396 23.7136 44.6375 23.738 44.6355 23.7628C44.5598 24.6497 44.5547 25.5434 44.5451 26.4337C44.5317 27.6953 44.5317 27.6953 44.5114 28.3175C44.51 28.3591 44.5086 28.4007 44.5073 28.4436C44.4798 29.2446 44.4086 30.0352 44.2873 30.8292C44.2814 30.8688 44.2752 30.908 44.269 30.9485C44.2075 31.3438 44.1326 31.7323 44.0343 32.1173C44.0274 32.1451 44.0202 32.173 44.0129 32.2018C43.9775 32.34 43.9414 32.4779 43.9043 32.6143C43.8974 32.6401 43.8909 32.6656 43.8837 32.692C43.8713 32.7398 43.8583 32.7876 43.8448 32.8354C43.7813 33.0791 43.8363 33.2719 43.9181 33.5057C43.9339 33.5517 43.9497 33.5975 43.9655 33.6435C43.9741 33.6672 43.9823 33.6913 43.9909 33.7157C44.4653 35.0838 44.7678 36.5448 44.7747 38.0126C44.775 38.0525 44.7754 38.0927 44.7754 38.1339C44.7761 38.2625 44.7764 38.3911 44.7764 38.5189V38.6523C44.7761 39.3089 44.7606 39.9551 44.6647 40.6048C44.6585 40.6471 44.6527 40.6894 44.6461 40.733C44.3354 42.8437 43.6664 44.9268 42.8071 46.8518C42.7919 46.8868 42.7765 46.9216 42.7607 46.9573C42.3688 47.8442 41.9082 48.6795 41.3994 49.4976C41.3836 49.5234 41.3674 49.5492 41.3509 49.5757C40.825 50.4213 40.2166 51.205 39.5428 51.9372C39.5095 51.9737 39.4765 52.0101 39.4431 52.0465C39.4091 52.084 39.3751 52.1215 39.341 52.1586C39.3249 52.1761 39.3091 52.1937 39.2926 52.2115C39.1688 52.3463 39.1688 52.3463 39.1097 52.3954C39.043 52.4752 39.042 52.536 39.0327 52.6395C39.0268 52.6983 39.0268 52.6983 39.021 52.7588C39.0176 52.8024 39.0138 52.8461 39.01 52.8915C39.0059 52.9386 39.0018 52.9857 38.9976 53.0328C38.9835 53.1947 38.9708 53.3566 38.9584 53.5174C38.955 53.5618 38.955 53.5618 38.9516 53.6068C38.7955 55.6212 38.7178 57.6974 38.9584 59.6912H39.0616C39.0911 59.5613 39.1025 59.4372 39.1083 59.3028C39.24 56.5734 39.8405 53.8715 41.0368 50.9153C41.0818 50.8066 41.1261 50.6977 41.1705 50.5887C41.2891 50.2996 41.4187 50.0181 41.5623 49.7396C41.6607 49.5464 41.7535 49.3512 41.8466 49.1552C41.992 48.8517 42.1395 48.5503 42.2901 48.2478C42.3323 48.1639 42.3739 48.08 42.4155 47.9961C42.5616 47.7026 42.7081 47.4083 42.8624 47.1196C43.136 46.6039 43.4021 46.0814 43.6668 45.5624C43.6812 45.5345 43.6957 45.5063 43.7104 45.4771C45.2023 42.5552 46.182 39.5646 45.9345 32.8271C45.8757 32.1981 45.8173 31.569 45.7626 30.9365C45.7602 30.9087 45.7578 30.8808 45.7551 30.8523C45.6396 29.522 45.6097 28.1367 45.797 26.796C45.8046 26.7427 45.8046 26.7427 45.8121 26.6881C45.9847 25.4987 46.369 24.3712 46.9121 23.2987C47.0318 23.0612 47.1424 22.8209 47.2511 22.5768C47.4652 22.099 47.6876 21.6281 47.9145 21.1572C47.9973 20.9856 48.0792 20.8134 48.161 20.6415C48.2569 20.4404 48.3538 20.2393 48.4549 20.04C48.9464 19.074 49.1493 18.0393 49.3211 16.9772C49.417 16.379 49.5336 15.7912 49.7302 15.2206C49.7405 15.1907 49.7505 15.1608 49.7611 15.1302C49.857 14.8521 49.9698 14.5836 50.0956 14.3189C50.1114 14.2856 50.1114 14.2856 50.1272 14.2512C50.4813 13.5018 50.9453 12.835 51.54 12.2575C51.5638 12.2317 51.5638 12.2317 51.5882 12.2049C51.8735 11.8993 52.2722 11.5964 52.6985 11.5586C53.0766 11.549 53.3069 11.6057 53.5991 11.8443C53.8322 12.0677 53.9463 12.3187 53.9566 12.6418C53.9552 12.8979 53.8903 13.1333 53.8218 13.3774C53.7851 13.5097 53.7497 13.6428 53.7149 13.7762C53.7077 13.8023 53.7008 13.8284 53.694 13.8556C53.5482 14.4159 53.4626 14.9899 53.4558 15.5674C53.4551 15.6008 53.4547 15.6341 53.4544 15.6685C53.4533 15.7782 53.4527 15.8878 53.4523 15.9978C53.452 16.0356 53.4516 16.0734 53.4516 16.1123C53.4499 16.927 53.5214 17.7279 53.6073 18.5357C53.6548 18.986 53.6795 19.4363 53.6799 19.8901V19.9647C53.6778 21.4772 53.1574 22.6459 52.4183 23.9178C52.0333 24.5916 51.7239 25.2962 51.473 26.0284C51.4641 26.0542 51.4551 26.08 51.4458 26.1065C50.6002 28.5471 51.023 31.1252 51.3719 33.6002C51.5115 34.5971 51.6432 35.5905 51.7398 36.5908C51.7466 36.6627 51.7538 36.7345 51.7611 36.8064C51.9594 38.8448 51.6872 40.8626 51.0254 42.7876C51.0079 42.8399 51.0079 42.8399 50.9897 42.8932C50.4981 44.3369 49.8038 45.7016 49.0991 47.0525C49.0716 47.1055 49.0716 47.1055 49.0434 47.1591C48.9739 47.2918 48.9042 47.4241 48.8344 47.5578C48.7423 47.7318 48.6508 47.905 48.5597 48.0803C48.5429 48.1127 48.526 48.1453 48.5085 48.1787C48.4092 48.3691 48.3102 48.5602 48.2115 48.7493C48.2005 48.7706 48.1895 48.7923 48.1778 48.8146C48.1328 48.9019 48.0878 48.9892 48.0427 49.0765C47.9241 49.3065 47.8045 49.5372 47.6818 49.764C47.5113 50.0823 47.358 50.4103 47.204 50.7368C47.172 50.8056 47.1397 50.874 47.1074 50.9427C46.6227 51.974 46.1861 53.0156 45.8321 54.1018C45.8183 54.1438 45.8046 54.1857 45.7905 54.229C45.2267 55.9649 44.8486 57.804 44.8005 59.6259H44.8692C44.8723 59.5922 44.8751 59.5585 44.8782 59.5234C44.9947 58.3272 45.4763 57.3338 46.126 56.3437C46.6966 55.4741 47.006 54.5184 47.0507 53.4734C47.052 53.447 47.0531 53.4208 47.0541 53.394C47.0589 53.2864 47.063 53.1788 47.0665 53.0713C47.0816 52.6381 47.1294 52.2531 47.4446 51.9266C47.723 51.7055 47.9808 51.6148 48.3383 51.6172C48.6818 51.6643 48.9502 51.8142 49.1599 52.0881C49.8508 53.1056 50.2049 54.3328 50.4009 55.5256C50.4067 55.5593 50.4122 55.593 50.418 55.6277C50.6346 56.9615 50.5136 58.333 50.2634 59.6496C50.2946 59.6486 50.3256 59.6475 50.3579 59.6462C50.7532 59.6372 51.0351 59.6836 51.3273 59.959C51.5342 60.1852 51.6555 60.4402 51.671 60.7496C51.6476 61.1071 51.5308 61.3855 51.2723 61.6365C50.9251 61.9077 50.5366 61.9431 50.1138 61.9393L49.9468 61.9403C49.7941 61.941 49.6415 61.9403 49.4896 61.94C49.3232 61.9393 49.1572 61.94 48.9911 61.9403C48.7003 61.941 48.4102 61.941 48.118 61.9407C47.6849 61.94 47.2518 61.9403 46.8186 61.9407C46.0452 61.9417 45.2718 61.9417 44.5018 61.941C43.8246 61.9407 43.1508 61.9407 42.4736 61.9407C42.4286 61.9407 42.3839 61.9407 42.3375 61.941H41.7909C41.2822 61.941 40.7734 61.9414 40.2647 61.9414H40.1946C39.4555 61.9414 38.7164 61.9414 37.9808 61.9407H37.9083C37.5198 61.9407 37.1314 61.9403 36.743 61.9403C35.1995 61.9393 33.6595 61.9393 32.1023 61.9403C31.7139 61.9403 31.3255 61.9407 30.937 61.9407C30.913 61.941 30.8893 61.941 30.8645 61.941C30.1254 61.9414 29.3898 61.9414 28.6508 61.9414H28.5806C28.0513 61.9414 27.5184 61.941 26.9856 61.941C26.8038 61.941 26.6213 61.941 26.4391 61.9407H26.3036C25.6264 61.9407 24.9527 61.9407 24.2755 61.9414C23.5055 61.9417 22.7389 61.9417 21.9689 61.9407C21.5393 61.9403 21.1096 61.94 20.6799 61.9407C20.3928 61.941 20.1058 61.941 19.8171 61.9403C19.6534 61.9397 19.4898 61.9397 19.3255 61.9403C19.1763 61.9407 19.0275 61.9407 18.8786 61.9397C18.8253 61.9397 18.7717 61.9397 18.7184 61.94C18.2509 61.9438 17.8969 61.8465 17.5566 61.5172C17.4589 61.4068 17.3971 61.3003 17.3483 61.1631C17.3269 61.1037 17.3269 61.1037 17.3053 61.0428C17.2372 60.7259 17.2974 60.4413 17.4579 60.1594C17.6384 59.8933 17.867 59.74 18.1729 59.6506C18.3273 59.6314 18.4799 59.63 18.6335 59.63C18.6978 59.629 18.6978 59.629 18.7638 59.6283C18.8769 59.6269 18.99 59.6259 19.1031 59.6255C19.2189 59.6248 19.3348 59.6235 19.4503 59.6221C19.6768 59.6193 19.904 59.6176 20.1309 59.6163C20.1354 59.596 20.1398 59.5757 20.1443 59.5551C20.1759 59.4134 20.2076 59.2718 20.2416 59.1323C20.6747 57.3104 20.3526 55.5572 19.836 53.8041C19.1897 51.5697 19.2 49.2322 20.3378 47.1354C20.5795 46.7091 20.8638 46.3172 21.1628 45.9322C21.1921 45.8944 21.2213 45.8563 21.2505 45.8181C21.3065 45.7456 21.3626 45.6731 21.4183 45.6002C21.4478 45.562 21.477 45.5239 21.5066 45.4854C21.5231 45.4641 21.5396 45.4428 21.5564 45.4204C23.1171 43.382 23.1136 41.1923 22.7939 38.7173C22.555 36.9229 22.2199 35.1423 21.7008 33.4235C21.5283 32.8426 21.3736 32.2685 21.2643 31.6738C21.2567 31.634 21.2495 31.5937 21.2416 31.5522C21.1058 30.8062 21.0278 30.0568 20.9611 29.304C20.9556 29.2394 20.9494 29.1748 20.9435 29.1102C20.9202 28.8413 20.9167 28.5739 20.9205 28.3058C20.8803 28.3195 20.8397 28.3329 20.7981 28.3467C19.1997 28.8795 19.1997 28.8795 19.1172 28.907C19.0649 28.9242 19.013 28.9417 18.9608 28.9589C18.836 29.0008 18.7112 29.0424 18.5861 29.084C18.3523 29.1617 18.1186 29.2397 17.8848 29.3181L17.5487 29.4305C17.4957 29.4481 17.4428 29.4659 17.3898 29.4835C16.0664 29.9269 16.0664 29.9269 15.592 29.7152C15.2971 29.5436 15.1142 29.282 15.0077 28.9589C14.9647 28.6048 15.0379 28.3195 15.1795 27.9964C15.1933 27.9651 15.207 27.9338 15.2211 27.9015C16.0943 25.9147 17.4039 23.7765 19.1743 22.4703C19.2018 22.4497 19.2018 22.4497 19.2299 22.428C19.3482 22.3383 19.4671 22.2492 19.5874 22.1609C19.5641 22.0017 19.5043 21.8622 19.4393 21.7175C19.4273 21.6907 19.4152 21.6638 19.4032 21.6363C19.2179 21.2307 18.9941 20.8423 18.7741 20.4538C18.76 20.4294 18.7459 20.4047 18.7315 20.3796C18.7061 20.3349 18.6803 20.2902 18.6542 20.2459C18.4589 19.9056 18.3943 19.5962 18.4744 19.2043C18.5699 18.9022 18.7545 18.6749 19.0278 18.5168C19.3008 18.3755 19.6259 18.3735 19.925 18.4336C20.2083 18.533 20.4681 18.7437 20.5988 19.0146C20.6159 19.0544 20.6328 19.0943 20.6503 19.1349C20.673 19.1462 20.6957 19.1579 20.7191 19.1692C20.7187 19.1105 20.7187 19.1105 20.7184 19.0507C20.7163 18.6794 20.7146 18.3082 20.7136 17.9369C20.7132 17.7461 20.7125 17.5553 20.7112 17.3663C20.7101 17.182 20.7094 16.9985 20.7094 16.8128C20.7091 16.7427 20.7088 16.6729 20.7081 16.6028C20.7043 16.0803 20.7029 15.6541 21.0862 15.2587C21.3395 15.0229 21.5881 14.9532 21.9318 14.959C22.2749 14.9738 22.4578 15.0992 22.7156 15.3165C22.7517 15.3464 22.7878 15.3763 22.8242 15.4059C23.0741 15.6142 23.3089 15.8356 23.5358 16.0659C23.6289 16.1611 23.7214 16.2529 23.8245 16.3374C23.8998 16.3997 23.9603 16.4564 24.0222 16.5313C24.0679 16.5842 24.1139 16.6372 24.1597 16.6901C24.1775 16.7111 24.1954 16.7321 24.214 16.7537C24.2762 16.8256 24.3391 16.8964 24.4023 16.9675C24.4226 16.9912 24.4429 17.015 24.4639 17.0394C24.5777 17.1721 24.5777 17.1721 24.7396 17.2112C24.775 17.1982 24.8104 17.1851 24.8472 17.1714C24.8695 17.1635 24.8918 17.1552 24.9149 17.147C24.9967 17.1164 25.0775 17.0837 25.1586 17.0511C26.207 16.642 27.3139 16.3532 28.4311 16.1882C28.5452 16.1714 28.6593 16.1539 28.7735 16.136C28.8116 16.1302 28.8498 16.1243 28.889 16.1185C28.9172 16.114 28.945 16.1095 28.9739 16.1051C28.9759 16.0865 28.9783 16.0679 28.9804 16.0487C29.0041 15.8507 29.0282 15.6534 29.0526 15.454C29.0615 15.3804 29.0705 15.3072 29.0791 15.2337C29.1877 14.3158 29.3998 13.453 29.7803 12.6108C29.7954 12.5775 29.8106 12.5442 29.826 12.5098C30.0251 12.0835 30.2213 11.7467 30.6648 11.5507C31.0395 11.4947 31.3832 11.4961 31.696 11.7253C31.9411 11.9319 32.1292 12.1653 32.1704 12.4953C32.2 12.8563 32.0711 13.1553 31.9191 13.475C31.815 13.7002 31.7201 13.9253 31.6421 14.1591C31.6342 14.1821 31.6263 14.2055 31.6183 14.2292C31.4867 14.6383 31.4231 15.0542 31.3733 15.477C31.3671 15.5279 31.3612 15.5788 31.355 15.6297C31.3399 15.7527 31.3255 15.8758 31.311 15.9975C31.4956 15.9762 31.6788 15.9542 31.8645 15.9318C31.927 15.9242 31.9893 15.9167 32.0518 15.9095C32.8803 15.818 32.8803 15.818 33.6571 15.5348C33.6836 15.5221 33.7104 15.509 33.7379 15.4956C33.8878 15.4213 34.027 15.3388 34.1642 15.2426C34.1136 15.0707 34.0617 14.8992 34.0057 14.7304C33.6815 13.7473 33.4694 12.7367 33.3732 11.702C33.3673 11.6418 33.3673 11.6418 33.3615 11.5799C33.3371 11.2682 33.3323 10.9543 33.3282 10.6415C33.3271 10.5992 33.3261 10.5573 33.3251 10.5136C33.3223 10.1011 33.412 9.8055 33.6998 9.50643C33.9589 9.28265 34.2326 9.21218 34.5694 9.21665C34.8592 9.24071 35.0885 9.35518 35.2982 9.55525C35.5058 9.80481 35.6089 10.0846 35.6151 10.4077C35.6165 10.4621 35.6165 10.4621 35.6179 10.5174C35.6189 10.5562 35.6199 10.5954 35.6206 10.6353C35.6502 11.5428 35.7581 12.4366 35.985 13.3166C36.1053 13.2767 36.1201 13.2495 36.1888 13.1471C36.2078 13.1189 36.2267 13.0911 36.2459 13.0622C36.2655 13.033 36.2851 13.0034 36.305 12.9728C36.3243 12.9446 36.3432 12.9161 36.3631 12.8869C36.4016 12.8295 36.4398 12.7721 36.4779 12.7143C36.5154 12.6586 36.5543 12.604 36.5945 12.5503C36.7351 12.3602 36.7725 12.2238 36.7629 11.99C36.7619 11.9581 36.7612 11.9264 36.7605 11.8934C36.7237 10.8484 36.5776 9.63156 35.8943 8.79625C35.656 8.4934 35.599 8.19812 35.6409 7.81656C35.7079 7.50203 35.9083 7.26312 36.1634 7.07406C36.514 6.85784 36.9025 6.89428 37.3012 6.90149L37.3188 6.97849ZM38.6869 9.40537C38.6951 9.44215 38.7034 9.47893 38.712 9.51709C38.9199 10.4555 39.0337 11.3974 39.0413 12.3565C39.042 12.3915 39.042 12.3915 39.0423 12.4276C39.0471 12.8161 39.0114 13.1186 38.7921 13.4451C38.7787 13.4651 38.7656 13.485 38.7518 13.5056C38.7078 13.5709 38.6628 13.6359 38.6181 13.7005C38.6027 13.7232 38.5872 13.7459 38.571 13.7693C38.3043 14.1612 38.0176 14.5324 37.7254 14.9037C37.7099 14.9229 37.6948 14.9422 37.679 14.9621C37.5174 15.1646 37.349 15.3608 37.1737 15.5499C37.1513 15.575 37.1293 15.5997 37.1067 15.6252C37.086 15.6486 37.0654 15.6716 37.0441 15.6953C36.9963 15.7586 36.9963 15.7586 37.0118 15.8246C37.0441 15.9184 37.0895 15.9961 37.1407 16.0813C37.1727 16.1343 37.1727 16.1343 37.205 16.1882C37.228 16.2257 37.2507 16.2635 37.2741 16.302C37.2978 16.3409 37.3212 16.3794 37.3452 16.4196C37.5051 16.6829 37.669 16.9421 37.8402 17.1999C37.9103 17.3068 37.9781 17.4151 38.0448 17.5241C38.0633 17.5543 38.0822 17.5846 38.1015 17.6158C38.1376 17.675 38.1737 17.7344 38.2094 17.7939C38.2256 17.82 38.2421 17.8465 38.2589 17.874C38.2733 17.8974 38.2874 17.9211 38.3022 17.9455C38.3167 17.9623 38.3311 17.9788 38.3459 17.996H38.449C39.0849 16.841 39.5696 15.6001 40.0096 14.3523C40.023 14.3148 40.0364 14.2777 40.0502 14.2395C40.0753 14.1704 40.0993 14.1013 40.1231 14.0319C40.2327 13.7291 40.3912 13.475 40.6765 13.3135C40.8058 13.2543 40.9391 13.2189 41.0753 13.1832C41.8556 12.9642 42.5259 12.506 42.9487 11.8013V11.7669C42.9026 11.7632 42.9026 11.7632 42.8559 11.7594C42.7397 11.7494 42.6232 11.7391 42.5053 11.7288C42.4554 11.7243 42.4056 11.7198 42.3557 11.7157C40.9017 11.5933 40.9017 11.5933 40.5167 11.1485C40.4001 10.9863 40.3328 10.8182 40.2688 10.6295C40.0997 10.162 39.8804 9.86978 39.4438 9.63603C39.197 9.525 38.9523 9.4504 38.6876 9.3954L38.6869 9.40537ZM34.9744 17.4835C34.2044 17.9235 33.3622 18.0782 32.4891 18.1813C32.4602 18.1851 32.431 18.1885 32.4007 18.192C31.4348 18.3078 30.4585 18.3989 29.4857 18.4219C28.5301 18.4467 27.6054 18.6897 26.6979 18.9719C26.6498 18.9867 26.6017 19.0015 26.5535 19.0163C26.4865 19.0369 26.4198 19.0582 26.3531 19.0795C26.315 19.0919 26.2765 19.1039 26.2369 19.1163C26.1465 19.151 26.1465 19.151 26.1177 19.2273C26.1153 19.3418 26.1823 19.4219 26.2431 19.5144C26.7175 20.2706 27.0922 21.0853 27.3466 21.9412C27.3607 21.9883 27.3751 22.0351 27.3895 22.0818C27.3964 22.1062 27.4036 22.1303 27.4105 22.1554C27.4679 22.3345 27.5408 22.4149 27.6989 22.5232C27.7391 22.5521 27.7793 22.5813 27.8196 22.6105C27.8395 22.625 27.8598 22.6397 27.8804 22.6549C28.0062 22.7497 28.119 22.8587 28.2345 22.966C28.3039 23.0299 28.374 23.0907 28.4469 23.1506C28.8594 23.5012 29.1722 23.9927 29.4507 24.4534C29.4727 24.4888 29.495 24.5242 29.5177 24.5606C29.9508 25.2791 30.2189 26.0869 30.4939 26.8741C30.5538 27.0452 30.6149 27.2161 30.6772 27.3862C30.7167 27.4938 30.7552 27.6018 30.7937 27.7097C30.8119 27.7599 30.8301 27.8101 30.8487 27.8603C30.9927 28.2487 31.0811 28.6337 30.9439 29.0393C30.8071 29.3284 30.6039 29.5206 30.3114 29.6375C29.2286 30.0053 27.8123 29.9599 26.7364 29.61C26.6976 29.5983 26.6587 29.5862 26.6188 29.5739C25.7801 29.2975 25.0307 28.7661 24.5357 28.027C24.5154 27.9974 24.4955 27.9675 24.4745 27.9369C24.3126 27.6832 24.1899 27.4041 24.2263 27.0982C24.3078 26.7407 24.4168 26.4691 24.7282 26.2594C25.0132 26.103 25.3332 26.0656 25.6495 26.1391C26.0482 26.2715 26.2613 26.5654 26.4951 26.8988C26.5185 26.9308 26.5418 26.9627 26.5659 26.9954H26.6347C26.646 27.0298 26.6573 27.0638 26.669 27.0985C26.9213 27.2866 27.1915 27.4217 27.494 27.511C27.5184 27.5186 27.5428 27.5258 27.5676 27.5334C27.8392 27.6076 28.1073 27.6186 28.3892 27.6142C28.2699 26.8063 27.8357 25.9676 27.3579 25.311C27.3397 25.2846 27.3211 25.2577 27.3022 25.2302C26.9378 24.7284 26.4497 24.3434 25.941 23.9996C25.908 23.9769 25.8753 23.9546 25.8416 23.9312C25.8134 23.9127 25.7856 23.8941 25.7564 23.8752C25.501 23.6428 25.4147 23.3596 25.3301 23.033C25.2985 22.9096 25.2648 22.7865 25.2311 22.6652C25.2246 22.6411 25.2181 22.6171 25.2112 22.5923C24.8743 21.3651 24.1903 20.2514 23.4031 19.2614C23.3886 19.2432 23.3742 19.2249 23.3594 19.206C23.2308 19.041 23.2308 19.041 23.0937 18.8832H23.0249C23.0246 18.9128 23.0246 18.9424 23.0243 18.9726C23.0222 19.2514 23.0198 19.5295 23.0167 19.8079C23.0153 19.9513 23.0139 20.0943 23.0129 20.2376C23.0122 20.3762 23.0108 20.5143 23.0091 20.6536C23.0084 20.7062 23.0081 20.7587 23.0078 20.8113C23.006 21.2342 22.9593 21.5745 22.6812 21.9079C22.5234 22.0567 22.3306 22.1358 22.1312 22.2173C22.1869 22.4294 22.247 22.6401 22.3168 22.8463C22.884 24.5479 23.0421 26.3182 23.1693 28.1057C23.1748 28.1817 23.18 28.258 23.1855 28.334C23.1923 28.4288 23.1989 28.5234 23.2054 28.6182C23.2082 28.6605 23.2113 28.7028 23.2143 28.7465C23.2171 28.7836 23.2195 28.8207 23.2223 28.8589C23.2388 29.0211 23.2597 29.0998 23.3804 29.2129C23.4161 29.2466 23.4161 29.2466 23.4526 29.2807C23.4783 29.304 23.5041 29.3274 23.5306 29.3515C23.5571 29.3762 23.5835 29.4006 23.6107 29.4257C23.6904 29.4989 23.7702 29.5715 23.8506 29.6437C23.8723 29.6636 23.8943 29.6832 23.9166 29.7038C24.7107 30.4222 25.7213 31.0994 26.8282 31.0651C27.0148 31.0541 27.1926 31.0121 27.3748 30.9716C27.7147 30.9117 27.9969 30.9747 28.2857 31.1562C28.317 31.1754 28.3483 31.1947 28.3802 31.2142C28.6023 31.4425 28.7308 31.723 28.7446 32.0427C28.737 32.3569 28.6078 32.6511 28.3871 32.8746C27.8783 33.3111 26.9915 33.3008 26.359 33.3214C26.4019 33.4369 26.4511 33.5373 26.5188 33.6401C26.537 33.6676 26.5549 33.6951 26.5735 33.7233C26.5927 33.7525 26.612 33.7814 26.6319 33.8116L26.7536 33.9972C26.7842 34.0437 26.7842 34.0437 26.8151 34.0907C27.0729 34.4826 27.3273 34.8745 27.5611 35.2801C27.5734 35.3018 27.5862 35.3231 27.5989 35.3451C28.0526 36.1288 28.3586 37.0226 28.4926 37.9163C28.5662 38.4045 28.6738 38.6829 29.0495 39.0095C29.1327 39.0823 29.2066 39.1628 29.2822 39.2436C29.925 39.8726 30.7363 40.2989 31.6438 40.347C32.3038 40.3903 32.8022 40.6815 33.3007 41.0895C33.3192 41.1046 33.3378 41.1194 33.357 41.1349C33.4464 41.2071 33.5114 41.2679 33.5757 41.3645H33.6444C33.6523 41.3831 33.6599 41.4016 33.6681 41.4205C33.7279 41.5292 33.8039 41.6144 33.885 41.7082C33.9191 41.6969 33.9531 41.6859 33.9882 41.6739C34.026 41.5976 34.026 41.5976 34.0535 41.502C34.0648 41.4662 34.0762 41.4302 34.0882 41.3934C34.0999 41.3549 34.1116 41.3164 34.1236 41.2765C34.1356 41.2377 34.1477 41.1988 34.16 41.1586C34.3357 40.6361 34.3357 40.6361 34.4007 40.093C34.3759 40.0871 34.3508 40.0813 34.3254 40.0754C33.8098 39.9527 33.3251 39.8211 32.8541 39.577C32.8304 39.5653 32.807 39.5533 32.7826 39.5409C31.8442 39.0597 31.1704 38.3068 30.6892 37.3753C30.6785 37.3547 30.6675 37.334 30.6565 37.3127C30.2165 36.4568 29.7147 35.0405 30.0172 34.078C30.1461 33.7779 30.3489 33.5865 30.6428 33.4524C30.9453 33.3372 31.265 33.3568 31.564 33.4806C31.8284 33.6167 32.0109 33.8223 32.114 34.1062C32.1659 34.2987 32.1769 34.5015 32.1969 34.6975C32.2766 35.4606 32.5001 36.1962 32.9944 36.7909C33.0291 36.8342 33.0291 36.8342 33.0648 36.8782C33.577 37.4832 34.3058 37.8407 35.093 37.9129C35.2013 37.9215 35.3092 37.9294 35.4175 37.937C35.7956 37.9634 36.1428 38.004 36.4315 38.2687C36.6677 38.543 36.754 38.8015 36.7516 39.159C36.7516 39.1886 36.7512 39.2181 36.7512 39.2484C36.7251 40.8021 36.2287 42.4727 35.4106 43.7859C35.3556 43.8808 35.3498 43.9292 35.3642 44.0375C35.3982 44.1227 35.3982 44.1227 35.4457 44.2052C35.5921 44.4861 35.656 44.7484 35.5825 45.0612C35.4848 45.3602 35.3394 45.6078 35.0531 45.7556C34.9964 45.7803 34.939 45.804 34.8812 45.8264C34.8438 45.8422 34.8059 45.8577 34.7674 45.8738C34.4405 45.9292 34.1693 45.8697 33.8771 45.7222C33.6183 45.5376 33.4921 45.2719 33.3478 44.9935C32.9662 44.2716 32.5606 43.5325 31.9934 42.9378H31.9246L31.8903 42.8347C31.7314 42.6412 31.5623 42.5484 31.3162 42.5233C31.2309 42.5168 31.1457 42.5109 31.0601 42.5051C30.3863 42.4576 29.6782 42.162 29.111 41.8141C29.0409 41.765 29.0409 41.765 28.9677 41.7705C29.0213 42.1967 29.0911 42.6161 29.1739 43.0355C29.1825 43.0795 29.1911 43.1235 29.1997 43.1688C29.2238 43.2874 29.2496 43.4053 29.2771 43.5229C29.2833 43.5518 29.2898 43.5803 29.2963 43.6099C29.3242 43.7078 29.3554 43.7807 29.4403 43.8402C29.5163 43.8773 29.5926 43.9069 29.6724 43.9354C29.9381 44.0427 30.1571 44.1616 30.3771 44.3479C30.4108 44.3764 30.4448 44.4046 30.4795 44.4338C31.4351 45.2588 31.8717 46.5582 32.1089 47.7613C32.1178 47.8053 32.1178 47.8053 32.1264 47.85C32.1931 48.2144 32.1838 48.5444 31.9724 48.8607C31.7882 49.1168 31.5599 49.335 31.3365 49.555C31.2598 49.6313 31.1838 49.7083 31.1079 49.7857C30.7504 50.1432 30.4307 50.4526 29.9013 50.4766C29.6191 50.4701 29.3032 50.3604 29.1038 50.1542C28.8649 49.8238 28.7951 49.5286 28.8288 49.1229C28.9216 48.6383 29.4029 48.2636 29.7569 47.9542C29.7796 47.9318 29.8023 47.9088 29.8257 47.8854C29.8044 47.3114 29.4613 46.5861 29.0763 46.1667C28.9099 46.0144 28.7257 45.924 28.5023 45.8992C28.4091 45.9037 28.3654 45.9103 28.2963 45.9735C28.2386 46.0577 28.1915 46.1443 28.1434 46.2341C28.1052 46.3004 28.0664 46.3661 28.0275 46.4317C27.9983 46.4816 27.9691 46.5311 27.9399 46.5809C27.7814 46.8525 27.6126 47.1172 27.4449 47.3818C27.2981 47.6128 27.1534 47.8459 27.0083 48.0762C26.9251 48.2103 26.8406 48.344 26.755 48.475C26.7027 48.5558 26.6512 48.6369 26.5996 48.718C26.5628 48.7758 26.5253 48.8332 26.4879 48.8902C26.3617 49.0851 26.3617 49.0851 26.3129 49.3062C26.3779 49.489 26.4487 49.6671 26.5257 49.8458C26.5511 49.9053 26.5511 49.9053 26.5773 49.9662C27.0138 50.9699 27.5535 51.9049 28.2823 52.7265C28.3087 52.7574 28.3352 52.788 28.3627 52.8196C28.8783 53.4109 29.5418 53.9059 30.3496 53.9712C31.1264 54.0131 31.8999 53.8505 32.6493 53.656C32.6953 53.6443 32.6953 53.6443 32.7421 53.6322C33.4296 53.4504 34.0861 53.1648 34.7118 52.8313C34.7448 52.8141 34.7448 52.8141 34.7781 52.7963C35.5343 52.3906 36.2356 51.8853 36.8784 51.3181C36.9104 51.2903 36.942 51.2624 36.9747 51.2336C37.1995 51.0318 37.4147 50.8211 37.6278 50.6079C37.669 50.5667 37.669 50.5667 37.7113 50.5251C37.876 50.3598 38.0334 50.1906 38.1857 50.0129C38.2043 49.9913 38.2232 49.9693 38.2421 49.9469C39.1427 48.8847 39.8818 47.6919 40.4902 46.4407C40.527 46.3654 40.5648 46.2901 40.6023 46.2152C41.2691 44.8745 41.7366 43.417 42.1079 41.9527C42.1237 41.8911 42.1237 41.8911 42.1395 41.8282C42.9233 38.6898 42.5383 35.4001 40.6648 31.7563C40.3874 31.2957 40.0908 30.8523 39.7711 30.4192C39.7456 30.3844 39.7205 30.3497 39.6944 30.314C39.5301 30.0912 39.3565 29.8774 39.1753 29.6677C39.0887 29.5663 39.0048 29.4628 38.9213 29.3587C38.8117 29.2236 38.6972 29.0988 38.5707 28.9806C38.5061 28.9152 38.4463 28.8479 38.3861 28.7784C38.2582 28.631 38.1228 28.4924 37.9839 28.3556C37.9612 28.3326 37.9382 28.3099 37.9148 28.2862C37.7794 28.1511 37.6402 28.0225 37.4954 27.8977C37.4074 27.8214 37.3232 27.7417 37.2383 27.6623C37.0159 27.456 36.7777 27.2704 36.5371 27.0848C36.4968 27.0538 36.457 27.0229 36.4168 26.992C36.3081 26.9081 36.1992 26.8246 36.0902 26.741C36.062 26.7194 36.0338 26.6977 36.0049 26.675C35.9805 26.6565 35.9561 26.6379 35.931 26.6187C35.9108 26.6032 35.8905 26.5874 35.8698 26.5712C35.8104 26.5282 35.8104 26.5282 35.7121 26.5004C35.6791 26.443 35.6791 26.443 35.6433 26.3629C35.6014 26.2928 35.5591 26.2227 35.5165 26.1525C35.4147 25.9848 35.3154 25.8157 35.2181 25.6438C34.7815 24.8772 34.3243 24.1107 33.795 23.4094C33.7688 23.3747 33.7688 23.3747 33.7424 23.3396C33.3849 22.8721 33.0102 22.4287 32.5152 22.1021H32.4464C32.4691 22.3785 32.5451 22.6418 32.6183 22.9065C32.6286 22.9443 32.6286 22.9443 32.6393 22.9828C32.9683 24.1722 33.4849 25.2791 34.0246 26.3859C34.5643 27.4962 34.5643 27.4962 34.4062 27.9775C34.3398 28.1459 34.2649 28.2662 34.1312 28.39V28.4587C34.1092 28.4673 34.0872 28.4759 34.0645 28.4849C33.9507 28.5313 33.8397 28.5822 33.7283 28.6341C33.4756 28.7341 33.192 28.7152 32.9342 28.6354C32.5286 28.4539 32.3533 28.0992 32.178 27.7176C32.1353 27.6272 32.0913 27.5375 32.0473 27.4478C31.4939 26.3203 30.9783 25.1618 30.583 23.9759C30.5641 23.9192 30.5448 23.8621 30.5256 23.8054C30.1818 22.7913 29.7934 21.5435 30.2849 20.5157C30.5018 20.1101 30.7937 19.8282 31.2268 19.6701C31.9796 19.4697 32.9181 19.7395 33.5781 20.117C34.2312 20.5123 34.7984 21.0588 35.2624 21.6604C35.2961 21.7034 35.3298 21.746 35.3638 21.7886C35.9001 22.4761 36.3642 23.2186 36.811 23.9646C36.8282 23.9927 36.8454 24.0213 36.8629 24.0505C36.9475 24.1914 37.0307 24.3331 37.1118 24.4767C37.3215 24.8411 37.5278 25.1539 37.9437 25.3017C37.9678 23.9749 37.7416 22.6927 37.3937 21.4174C37.3834 21.3789 37.3731 21.3404 37.3624 21.3005C37.2359 20.8296 37.0829 20.3827 36.8777 19.9392C36.8678 19.9169 36.8574 19.8946 36.8471 19.8715C36.578 19.2768 36.2009 18.7372 35.8468 18.194C35.7619 18.0637 35.6784 17.9324 35.5966 17.7987C35.5777 17.7685 35.5588 17.7382 35.5395 17.7069C35.5027 17.6478 35.4663 17.5883 35.4298 17.5289C35.4133 17.5027 35.3972 17.4763 35.38 17.4488C35.3656 17.4254 35.3511 17.4017 35.336 17.3773C35.3229 17.3604 35.3099 17.3439 35.2965 17.3264C35.1758 17.3264 35.0765 17.4106 34.9744 17.4704V17.4835ZM20.2619 24.5991C20.245 24.616 20.2282 24.6328 20.211 24.6503C20.1935 24.6675 20.1759 24.6851 20.1581 24.7029C20.1209 24.7401 20.0838 24.7775 20.0467 24.8147C19.9913 24.8707 19.9353 24.926 19.8793 24.9817C19.6552 25.2055 19.4496 25.4355 19.2537 25.6864C19.2169 25.7318 19.1798 25.7768 19.143 25.8218C18.7683 26.2722 18.7683 26.2722 18.4967 26.7878C18.8542 26.6809 19.2048 26.5647 19.5589 26.4464C19.6387 26.4196 19.7184 26.3932 19.7982 26.3663C19.8501 26.3492 19.9023 26.3316 19.9542 26.3141C20.0811 26.2718 20.2076 26.2295 20.3358 26.1879C20.3715 26.1759 20.3715 26.1759 20.4083 26.1639C20.4736 26.1426 20.5393 26.1212 20.6046 26.0996C20.6947 26.0752 20.6947 26.0752 20.7332 26.0315C20.7263 25.7912 20.6785 25.5503 20.6345 25.3165C20.6252 25.2674 20.6252 25.2674 20.6159 25.2172C20.5702 24.9714 20.5187 24.7291 20.4582 24.485C20.3619 24.485 20.3296 24.5366 20.2639 24.6012L20.2619 24.5991ZM25.5213 52.8554C25.5811 53.1067 25.6481 53.3573 25.7186 53.6048C25.7272 53.6353 25.7358 53.6656 25.7447 53.6969C25.7536 53.7278 25.7622 53.7588 25.7715 53.7907C26.0874 54.9045 26.3524 55.9976 26.3559 57.1629V57.2354C26.3548 58.002 26.2277 58.7376 26.0506 59.4801C26.0334 59.5523 26.0183 59.6252 26.0035 59.6981C26.0716 59.7665 26.2005 59.739 26.2937 59.739C26.3174 59.7393 26.3414 59.74 26.3658 59.7403C26.4284 59.7403 26.491 59.7369 26.5535 59.7324C26.6391 59.6472 26.6419 59.596 26.6646 59.4781C26.6721 59.4396 26.6797 59.4007 26.6876 59.3608C26.6958 59.3193 26.7041 59.2773 26.7127 59.234C26.8124 58.7493 26.9458 58.2784 27.1046 57.8074C27.1142 57.7789 27.1238 57.75 27.1338 57.7205C27.3854 56.978 27.7216 56.2595 28.1032 55.572C27.988 55.4524 27.8704 55.3513 27.7353 55.2544C27.5618 55.1265 27.4023 54.9901 27.2472 54.8419C27.1774 54.7749 27.1774 54.7749 27.0733 54.747L27.0389 54.6439C26.9901 54.6033 26.9413 54.5631 26.8918 54.5233C26.7794 54.4263 26.6879 54.3105 26.592 54.197C26.5645 54.1658 26.5367 54.1341 26.5085 54.1018C26.3201 53.8859 26.1441 53.6618 25.9791 53.4315C25.9606 53.4061 25.942 53.3806 25.9231 53.3545C25.8196 53.2091 25.723 53.062 25.6333 52.9076C25.6213 52.8911 25.6093 52.875 25.5965 52.8578H25.5278L25.5213 52.8554ZM33.29 55.846C32.7641 56.9941 32.2931 58.4585 32.2931 59.7304H33.4963C33.4963 59.4035 33.4959 59.0944 33.4718 58.7713C33.4244 58.1251 33.4217 57.4823 33.423 56.836C33.4234 56.8123 33.4234 56.7886 33.4234 56.7642C33.4241 56.4696 33.4254 56.1729 33.4275 55.8807C33.3821 55.8697 33.3368 55.858 33.29 55.8463V55.846Z" fill="white"/>
<path d="M32.7812 30.1C32.95 30.2155 33.1057 30.3471 33.2625 30.4781C33.29 30.4977 33.3171 30.517 33.3453 30.5369C33.3632 30.5517 33.3814 30.5661 33.4 30.5812V30.65C33.4185 30.6575 33.4374 30.6651 33.4563 30.6727C33.565 30.7342 33.6464 30.8174 33.7331 30.9057C33.7513 30.924 33.7695 30.9425 33.7881 30.9614C33.9572 31.1347 34.1105 31.3189 34.259 31.508C34.2868 31.5427 34.3147 31.5771 34.3436 31.6128C34.5605 31.884 34.7423 32.1697 34.9108 32.4722C34.9238 32.4945 34.9365 32.5169 34.9499 32.5399C35.2865 33.1243 35.7818 34.073 35.6099 34.764C35.512 35.0713 35.3432 35.338 35.0565 35.4962C34.7323 35.6423 34.4206 35.6811 34.0803 35.5605C33.7228 35.3979 33.5474 35.1892 33.4065 34.8248C33.3666 34.711 33.3295 34.5969 33.2927 34.4821C32.9998 33.5677 32.4574 32.7909 31.7252 32.1721C31.3883 31.8844 31.1408 31.6565 31.0618 31.1993C31.0439 30.8521 31.1711 30.5668 31.3842 30.2987C31.7417 29.9068 32.3261 29.8518 32.7798 30.0996L32.7812 30.1Z" fill="white"/>
</g>
<defs>
<clipPath id="clip0_63_3">
<rect width="55" height="55" fill="white" transform="translate(7 7)"/>
</clipPath>
</defs>
</svg>
